<?xml version="1.0" standalone="no"?>
<!DOCTYPE svg PUBLIC "-//W3C//DTD SVG 20010904//EN"
 "http://www.w3.org/TR/2001/REC-SVG-20010904/DTD/svg10.dtd">
<svg version="1.0" xmlns="http://www.w3.org/2000/svg"
 width="650.000000pt" height="650.000000pt" viewBox="0 0 650.000000 650.000000"
 preserveAspectRatio="xMidYMid meet">
<metadata>
Created by potrace 1.14, written by Peter Selinger 2001-2017
</metadata>
<g transform="translate(0.000000,650.000000) scale(0.100000,-0.100000)"
fill="#000000" stroke="none">
<path d="M1650 4793 c-25 -31 -44 -60 -42 -65 1 -6 -3 -8 -10 -5 -7 2 -55 -38
-105 -90 -51 -52 -90 -86 -86 -76 5 12 -6 8 -36 -16 -30 -24 -41 -39 -38 -53
6 -21 -80 -118 -105 -118 -7 0 -19 -5 -26 -12 -16 -16 -15 1 1 22 6 9 0 4 -14
-10 -14 -15 -33 -29 -42 -33 -21 -8 -22 -25 -3 -23 31 3 19 -17 -18 -29 -41
-14 -55 -26 -294 -260 -84 -82 -158 -152 -164 -154 -6 -2 10 23 35 56 25 33
43 64 39 68 -4 5 -2 5 4 2 11 -7 64 62 64 83 0 5 4 10 9 10 5 0 14 15 21 33 6
17 16 40 20 49 16 30 21 103 10 133 -6 17 -24 42 -39 56 -16 14 -32 39 -35 56
-7 31 -53 82 -93 102 -20 10 -24 8 -39 -21 -41 -79 -155 -262 -296 -474 -165
-247 -255 -406 -312 -550 -51 -129 -46 -196 22 -274 18 -22 44 -59 56 -82 12
-23 28 -44 35 -46 9 -3 11 0 6 8 -5 8 -4 11 3 6 6 -4 8 -14 5 -23 -5 -12 -2
-15 10 -10 10 4 16 2 14 -6 -1 -6 7 -13 19 -15 27 -4 120 33 117 47 -2 6 3 8
10 5 16 -6 103 62 132 102 11 16 28 36 37 46 10 10 16 18 13 18 -2 0 6 10 18
23 48 50 82 92 79 100 -1 4 3 7 9 7 13 0 55 51 51 62 -1 5 4 8 11 8 8 0 32 20
54 44 31 34 37 46 26 50 -8 3 -11 10 -8 16 13 21 -8 9 -36 -21 -35 -37 -39
-52 -6 -21 13 12 30 22 38 22 11 -1 10 -4 -3 -14 -10 -7 -18 -18 -18 -25 0 -6
-7 -11 -15 -11 -8 0 -15 -5 -15 -11 0 -6 -8 -8 -19 -4 -13 4 -29 -3 -50 -24
-16 -16 -32 -27 -35 -24 -3 3 6 14 19 25 14 11 30 29 37 41 11 21 10 21 -8 7
-10 -8 -21 -18 -24 -21 -10 -13 -52 -30 -58 -25 -3 4 3 13 14 21 10 8 16 15
12 15 -8 0 40 50 49 50 3 0 2 -7 -1 -16 -3 -8 -2 -12 3 -9 6 3 10 13 10 23 1
40 5 50 18 45 12 -5 18 8 14 30 -1 5 3 6 8 3 12 -8 33 18 23 29 -4 5 -2 5 5 1
13 -7 260 230 255 246 -1 5 2 7 7 4 5 -3 23 9 39 28 17 19 33 32 36 29 3 -4 6
1 6 11 0 9 4 15 9 12 5 -3 31 19 59 49 28 30 53 55 56 55 10 0 74 69 69 74 -4
3 0 6 8 6 16 0 55 40 51 53 -1 5 2 6 7 3 12 -8 103 79 94 88 -4 3 0 6 9 6 19
0 60 44 51 55 -5 4 -3 5 4 1 7 -3 30 11 54 34 23 22 47 40 52 40 5 0 6 7 3 16
-4 9 -2 12 5 8 6 -3 24 10 40 29 16 20 38 39 49 42 11 4 18 11 15 16 -4 5 2 6
11 2 13 -5 16 -3 11 10 -4 11 -2 14 7 11 8 -3 17 -1 21 5 3 6 0 11 -7 11 -9 1
-9 4 2 13 47 37 63 94 33 118 -15 12 -16 12 -10 -3 4 -12 2 -15 -9 -11 -7 3
-14 1 -14 -5 0 -5 -11 -20 -25 -33 -13 -13 -25 -32 -25 -42 0 -10 -4 -15 -10
-12 -5 3 -10 0 -10 -8 0 -10 -7 -13 -20 -10 -15 4 -19 11 -14 25 5 17 3 18
-13 10 -10 -6 -29 -22 -42 -35 -22 -25 -23 -26 -2 -20 12 3 21 1 21 -6 0 -6
-8 -11 -17 -11 -9 0 -25 -8 -36 -17 -11 -10 -17 -12 -13 -5 10 17 -9 15 -24
-3 -10 -12 -10 -15 3 -15 23 0 31 -32 12 -47 -10 -7 -14 -17 -9 -24 4 -8 3
-10 -4 -5 -7 4 -12 3 -12 -1 0 -5 -9 -14 -21 -21 -12 -8 -18 -9 -14 -3 11 18
-7 12 -42 -15 -36 -28 -42 -44 -15 -44 16 -1 16 -1 -1 -11 -9 -5 -21 -8 -26
-5 -4 3 -25 -11 -47 -31 -21 -21 -42 -37 -47 -38 -4 0 -19 -13 -35 -28 -15
-15 -36 -35 -47 -43 -20 -15 -20 -15 3 -9 14 4 22 2 22 -6 0 -9 3 -9 14 0 11
9 16 9 22 0 4 -7 3 -10 -2 -6 -14 8 -47 -20 -39 -35 3 -7 1 -6 -7 3 -19 22
-61 2 -117 -56 -25 -25 -49 -45 -53 -45 -4 0 -8 -4 -8 -10 0 -5 8 -7 17 -3 10
3 16 4 13 2 -3 -2 -25 -22 -49 -44 -24 -22 -41 -34 -37 -27 20 34 -5 12 -217
-194 -49 -48 -91 -83 -94 -80 -8 8 -63 -44 -63 -60 0 -7 -17 -22 -37 -34 l-38
-22 24 26 c25 26 14 38 -11 13 -14 -15 -53 -37 -63 -37 -3 0 3 10 15 22 11 12
20 26 20 31 0 5 6 7 14 4 7 -3 28 10 47 30 25 26 28 33 12 24 -12 -6 -26 -19
-32 -29 -5 -9 -12 -14 -15 -11 -8 8 639 641 684 669 10 6 228 210 293 273 27
27 66 59 86 71 37 24 70 56 56 56 -4 0 4 15 19 34 27 35 31 52 20 80 -10 27
-28 18 -74 -41z m-175 -402 c3 -5 1 -12 -5 -16 -5 -3 -10 1 -10 9 0 18 6 21
15 7z m-75 -85 c0 -3 -4 -8 -10 -11 -5 -3 -10 -1 -10 4 0 6 5 11 10 11 6 0 10
-2 10 -4z m-97 -55 c-5 -18 -33 -38 -33 -24 0 6 30 43 36 43 1 0 0 -9 -3 -19z
m-173 5 c0 -3 -4 -8 -10 -11 -5 -3 -10 -1 -10 4 0 6 5 11 10 11 6 0 10 -2 10
-4z m205 -6 c3 -5 -1 -10 -10 -10 -9 0 -13 5 -10 10 3 6 8 10 10 10 2 0 7 -4
10 -10z m-243 -22 c-7 -7 -12 -8 -12 -2 0 14 12 26 19 19 2 -3 -1 -11 -7 -17z
m-70 -72 c7 4 8 2 4 -4 -4 -7 -15 -12 -25 -12 -11 0 -18 -7 -17 -16 0 -9 -16
-27 -36 -40 -40 -26 -49 -21 -22 12 8 10 12 13 8 5 -4 -9 -2 -12 7 -9 8 3 14
12 14 20 0 18 48 61 53 47 2 -5 9 -6 14 -3z m192 -31 c-4 -8 -10 -12 -15 -9
-5 3 -12 -2 -15 -10 -3 -9 -11 -16 -16 -16 -7 0 -6 5 1 13 6 8 7 18 3 22 -4 5
-2 5 5 1 6 -3 14 -2 18 4 10 16 25 12 19 -5z m-449 -44 c3 -5 2 -12 -3 -15 -5
-3 -9 1 -9 9 0 17 3 19 12 6z m359 -50 c3 -5 -3 -11 -15 -14 -16 -4 -18 -3 -8
9 13 16 16 17 23 5z m-264 -26 c0 -8 -7 -15 -15 -15 -8 0 -21 -12 -29 -27 -8
-16 -15 -23 -16 -16 0 11 47 73 56 73 2 0 4 -7 4 -15z m215 -15 c-3 -5 -16
-15 -28 -21 -19 -9 -19 -8 3 10 28 23 34 26 25 11z m-365 -35 c0 -5 -5 -3 -10
5 -5 8 -10 20 -10 25 0 6 5 3 10 -5 5 -8 10 -19 10 -25z m-115 -55 c3 -6 -1
-7 -9 -4 -18 7 -21 14 -7 14 6 0 13 -4 16 -10z m355 -16 c0 -9 -9 -18 -20 -21
-11 -3 -20 -9 -20 -14 0 -5 -5 -9 -12 -9 -6 0 1 14 17 30 33 35 35 35 35 14z
m-346 -50 c3 -8 2 -12 -4 -9 -6 3 -10 10 -10 16 0 14 7 11 14 -7z m3 -429 c0
-8 -4 -12 -9 -9 -5 3 -6 10 -3 15 9 13 12 11 12 -6z m-79 -90 c-3 -3 -9 2 -12
12 -6 14 -5 15 5 6 7 -7 10 -15 7 -18z m-85 -70 c-3 -9 -8 -14 -10 -11 -3 3
-2 9 2 15 9 16 15 13 8 -4z m-88 -65 c-3 -5 -12 -10 -18 -10 -7 0 -6 4 3 10
19 12 23 12 15 0z m-50 -48 c-3 -3 -11 0 -18 7 -9 10 -8 11 6 5 10 -3 15 -9
12 -12z"/>
<path d="M965 4120 c-3 -5 -1 -10 4 -10 6 0 11 5 11 10 0 6 -2 10 -4 10 -3 0
-8 -4 -11 -10z"/>
<path d="M3550 4517 c-36 -12 -90 -40 -120 -61 -78 -56 -262 -198 -278 -213
-17 -16 -32 -8 -32 17 0 10 -5 22 -10 25 -6 4 -8 10 -5 15 6 10 -43 90 -55 90
-5 0 -13 14 -19 30 -24 70 -75 115 -113 101 -9 -3 -57 -59 -107 -124 -107
-142 -358 -444 -421 -507 -25 -25 -69 -66 -99 -90 -30 -25 -84 -70 -120 -101
-85 -71 -214 -170 -318 -242 -125 -88 -325 -174 -420 -182 -48 -4 -52 2 -28
58 8 19 11 37 8 41 -4 3 -2 6 4 6 6 0 14 16 17 35 4 19 11 35 16 35 16 0 23
42 9 51 -10 6 -10 9 -2 9 6 0 15 -5 18 -11 9 -14 145 -10 164 5 11 8 13 8 8
-1 -5 -8 18 -5 65 8 40 11 74 24 76 29 2 5 11 6 19 3 12 -5 15 -2 10 9 -4 11
-1 15 11 12 20 -5 134 70 124 81 -4 5 -2 5 4 2 10 -6 95 48 102 65 2 4 19 17
38 29 24 14 33 26 29 37 -4 12 -3 13 10 2 14 -11 19 -7 16 12 0 4 5 5 12 3 6
-3 29 10 49 29 20 19 39 32 41 30 2 -2 20 11 40 30 20 18 38 32 40 30 6 -6
117 113 117 125 0 5 20 27 45 48 26 21 43 43 40 51 -2 7 -1 11 4 8 5 -3 16 5
25 18 17 27 28 96 15 96 -5 0 -6 6 -3 13 3 8 -12 29 -33 48 -21 19 -39 46 -41
59 -9 68 -107 129 -216 136 -203 11 -448 -126 -732 -410 -247 -248 -407 -511
-389 -644 7 -55 40 -161 66 -213 28 -56 126 -189 133 -181 4 3 4 -1 1 -9 -6
-17 30 -47 62 -52 10 -1 23 -6 29 -9 19 -12 197 -3 202 10 2 7 8 10 13 7 12
-8 51 14 44 25 -3 4 4 6 14 3 11 -3 32 2 48 10 27 15 62 29 74 31 3 1 29 16
58 33 33 21 50 37 45 45 -4 6 -3 8 3 5 6 -4 28 10 50 31 77 74 103 88 103 54
0 -19 45 -96 72 -122 8 -9 23 -31 32 -48 9 -18 21 -30 26 -27 6 3 7 0 5 -7 -3
-8 9 -28 26 -46 42 -43 78 -43 103 1 55 91 57 98 44 115 -10 14 -10 15 2 5 11
-10 19 -5 41 25 15 20 25 40 23 43 -2 4 3 10 12 13 8 3 12 10 9 16 -3 5 -2 10
2 10 12 0 99 121 95 132 -1 5 2 7 7 4 5 -3 16 4 24 17 8 12 24 33 36 46 11 13
18 28 14 34 -3 5 -1 7 5 4 5 -4 28 15 51 42 22 26 77 85 121 130 44 44 80 86
80 93 0 6 3 8 6 5 9 -8 50 45 46 58 -2 5 0 7 3 3 4 -4 33 17 64 46 31 29 70
66 86 81 17 15 29 32 27 37 -1 5 1 7 6 4 11 -6 54 23 48 33 -3 3 3 7 13 7 13
0 2 -21 -44 -86 -188 -260 -265 -427 -261 -565 1 -55 5 -66 56 -139 30 -43 63
-90 72 -105 47 -72 59 -81 104 -81 57 0 148 35 184 70 16 15 32 25 36 22 4 -4
4 1 1 11 -4 11 -3 16 3 12 13 -8 51 36 45 52 -2 7 1 12 8 10 7 -1 11 4 9 11
-1 8 2 11 6 8 5 -3 19 2 30 12 54 45 63 52 71 52 14 0 41 36 34 45 -5 4 -2 5
5 1 6 -4 12 -2 12 3 0 19 18 12 25 -9 3 -11 24 -42 46 -70 21 -27 39 -54 39
-60 0 -5 5 -10 11 -10 5 0 7 -4 4 -10 -3 -5 -1 -10 4 -10 6 0 11 -7 11 -16 0
-10 6 -14 14 -11 9 4 13 1 10 -6 -2 -7 7 -24 21 -37 14 -13 25 -20 25 -16 0 4
7 0 16 -9 9 -9 23 -14 31 -11 8 3 11 1 8 -4 -3 -6 1 -10 9 -10 21 0 87 40 81
50 -3 4 3 7 13 6 9 0 16 5 14 12 -1 8 2 11 8 7 14 -9 121 64 113 78 -3 5 -1 7
4 4 6 -4 24 3 39 16 16 12 38 29 49 37 10 8 45 40 77 71 l58 56 0 -37 c0 -29
13 -58 59 -126 32 -49 67 -99 77 -111 11 -12 27 -35 36 -52 12 -22 25 -31 45
-32 15 -1 35 -2 43 -3 8 -1 41 7 72 17 43 14 75 35 128 84 38 36 68 68 66 72
-3 4 15 19 40 35 24 15 41 32 38 37 -3 5 -2 8 3 7 4 -1 19 4 31 11 13 7 25 11
26 9 1 -2 11 -24 23 -49 12 -26 34 -62 50 -80 16 -19 35 -46 42 -60 28 -55 75
-96 123 -108 62 -15 161 -14 176 1 9 9 12 9 12 1 0 -11 108 30 120 45 3 4 14
8 25 10 36 6 147 61 141 71 -4 5 -1 13 5 17 8 4 9 3 5 -4 -16 -27 14 -9 45 26
19 20 54 53 79 71 25 19 50 39 55 44 18 17 -59 -25 -92 -51 -18 -13 -33 -21
-33 -16 0 4 -7 -1 -16 -12 -8 -10 -13 -13 -9 -6 8 15 -31 8 -82 -15 -18 -9
-40 -13 -48 -9 -8 3 -15 0 -15 -6 0 -6 -3 -8 -7 -5 -3 4 -12 2 -20 -5 -11 -8
-12 -7 -7 6 3 9 12 16 20 16 8 0 14 5 14 11 0 5 5 7 10 4 6 -3 10 -1 10 6 0 7
3 9 6 6 11 -10 45 13 38 25 -4 7 -3 8 5 4 6 -4 36 4 65 18 30 14 63 27 73 29
25 4 44 17 38 27 -3 4 1 7 8 7 20 -1 77 24 77 34 0 5 5 9 10 9 6 0 16 4 23 10
7 5 44 35 82 66 39 31 69 61 67 66 -1 5 2 7 7 4 11 -7 176 152 167 162 -4 3
-24 -11 -44 -33 -20 -22 -70 -64 -109 -94 -40 -30 -73 -57 -73 -60 0 -3 -14
-12 -30 -19 -17 -8 -28 -18 -25 -23 4 -5 0 -6 -8 -3 -8 3 -17 -2 -21 -11 -3
-9 -10 -13 -16 -10 -5 3 -10 2 -10 -3 0 -5 -13 -15 -30 -22 -16 -7 -30 -16
-30 -20 0 -4 -13 -13 -30 -20 -16 -7 -30 -16 -30 -21 0 -5 -3 -9 -7 -8 -16 2
-53 -14 -53 -22 0 -5 -7 -9 -15 -9 -13 0 -13 3 -3 20 7 11 17 20 23 20 6 0 17
8 26 18 8 9 31 30 52 46 20 16 34 34 30 39 -3 6 -1 7 5 3 12 -7 57 18 80 44
12 13 13 13 7 0 -4 -8 1 -6 9 4 9 11 16 16 16 12 0 -4 16 5 35 20 19 14 32 30
29 35 -3 5 1 7 8 4 19 -8 132 100 123 117 -5 7 -4 10 0 5 11 -9 45 21 45 40 0
8 16 21 35 29 19 8 35 21 35 30 0 9 9 18 20 21 11 3 20 9 20 13 0 5 7 7 15 6
17 -3 33 -16 18 -16 -11 0 -67 -79 -60 -86 5 -5 55 51 78 86 9 14 28 39 43 55
30 35 31 38 12 54 -11 9 -21 6 -45 -15 -38 -32 -34 -43 6 -17 l28 18 -26 -35
c-26 -35 -66 -48 -61 -20 2 13 0 13 -10 0 -7 -8 -49 -46 -93 -84 -44 -39 -84
-75 -90 -80 -5 -6 -30 -27 -55 -47 -25 -20 -56 -47 -70 -59 -14 -12 -46 -38
-72 -58 -27 -20 -48 -40 -48 -45 0 -5 -7 -4 -15 3 -11 9 -21 6 -50 -16 -38
-28 -41 -43 -6 -24 35 18 24 4 -21 -26 -51 -34 -75 -53 -100 -76 -10 -10 -18
-14 -18 -9 0 9 57 56 94 78 15 9 17 12 5 13 -8 0 -43 -18 -77 -40 -33 -22 -71
-40 -84 -40 -13 0 -46 -9 -75 -20 -29 -11 -55 -16 -58 -10 -3 5 -1 11 5 15 5
3 10 4 10 0 0 -3 17 5 38 18 20 12 62 33 92 46 178 74 288 151 470 328 46 45
81 85 77 89 -4 4 -30 -15 -59 -42 -96 -90 -304 -239 -423 -303 l-60 -33 55 52
c30 28 87 72 125 97 147 97 266 198 315 270 8 12 22 23 30 25 8 2 25 19 37 38
13 19 23 31 23 27 0 -4 9 -3 21 3 20 11 22 35 2 35 -6 0 -33 -20 -60 -45 -213
-201 -602 -498 -721 -552 -165 -74 -326 -117 -319 -85 1 7 -4 11 -11 9 -8 -1
-11 2 -7 8 3 6 10 8 15 5 5 -3 18 21 29 52 12 32 30 74 41 93 18 34 21 35 84
38 43 2 66 7 66 15 0 9 2 9 8 0 6 -9 17 -10 41 -3 19 5 38 7 42 4 5 -3 9 0 9
6 0 6 5 8 10 5 6 -3 16 -3 23 2 6 4 19 8 27 10 30 4 90 39 86 49 -3 7 3 10 13
7 9 -2 29 7 44 21 15 14 27 23 27 20 0 -2 11 3 25 12 14 9 22 21 18 27 -3 5
-1 7 5 3 6 -3 18 1 26 10 9 8 16 12 16 7 0 -4 4 -3 8 3 4 6 45 39 92 74 47 34
83 68 82 74 -2 6 0 8 4 4 8 -8 64 22 64 34 0 4 7 8 16 8 10 0 14 6 11 14 -4
10 -1 13 8 9 8 -3 18 2 21 11 3 9 11 16 18 16 10 0 32 23 96 99 11 14 18 31
16 38 -3 7 -2 12 2 11 15 -5 72 37 67 50 -3 7 0 10 6 7 6 -4 13 2 16 14 3 12
10 21 15 21 6 0 8 7 4 15 -3 8 -1 15 4 15 14 0 12 61 -3 90 -8 14 -19 24 -26
22 -7 -1 -10 2 -6 7 3 6 -4 15 -15 21 -11 6 -20 20 -20 31 0 58 -79 121 -174
140 -72 15 -167 0 -275 -41 -209 -81 -485 -311 -693 -580 -69 -88 -127 -147
-238 -240 -35 -30 -73 -63 -85 -73 -39 -36 -75 -58 -75 -47 0 6 -5 8 -12 4 -7
-4 -8 -3 -4 4 4 6 12 9 19 6 7 -2 21 10 31 28 11 17 25 39 33 47 7 9 13 20 12
25 0 5 4 12 10 16 6 3 13 15 15 26 3 10 32 48 65 83 34 36 61 68 61 72 0 4 8
15 18 25 9 10 49 63 89 118 54 76 69 104 61 114 -8 9 -7 11 5 6 22 -8 51 48
34 66 -9 10 -9 11 1 6 29 -17 -6 63 -48 109 -15 17 -31 41 -35 55 -11 39 -53
89 -81 96 -29 7 -43 -6 -109 -107 -24 -36 -55 -70 -68 -76 -19 -9 -197 -150
-217 -172 -3 -3 -39 -35 -80 -71 -41 -35 -97 -85 -125 -111 -27 -25 -90 -82
-140 -125 -49 -43 -92 -81 -95 -84 -3 -3 -34 -30 -70 -60 -36 -30 -67 -57 -70
-60 -3 -3 -15 -13 -26 -23 -21 -18 -22 -18 -20 0 0 10 9 24 19 31 9 7 17 19
17 25 0 7 18 32 41 55 32 35 38 47 28 58 -11 14 -10 15 11 18 15 2 30 28 23
40 -3 5 -1 6 5 2 7 -4 12 -3 12 2 0 5 11 22 24 37 14 16 22 33 19 38 -3 6 -1
7 4 4 14 -9 37 19 27 34 -4 7 -3 9 4 6 13 -9 64 51 56 65 -4 6 -2 8 4 4 16
-10 27 15 11 26 -11 8 -10 9 3 4 12 -3 24 5 38 24 12 17 18 30 13 30 -4 0 -3
4 3 8 20 13 33 68 21 82 -8 9 -8 11 -1 7 21 -12 -6 96 -28 115 -12 10 -25 18
-29 18 -5 0 -14 20 -20 45 -9 34 -22 54 -54 80 -23 19 -46 35 -52 35 -21 0
-101 -109 -237 -323 -20 -32 -49 -70 -64 -85 -63 -61 -135 -123 -172 -149 -22
-15 -43 -38 -46 -50 -3 -12 -15 -25 -27 -29 -11 -4 -53 -36 -92 -73 -39 -36
-93 -84 -120 -106 -27 -22 -67 -57 -89 -77 -23 -21 -45 -38 -51 -38 -7 0 -7 3
0 8 15 10 55 70 55 81 0 5 7 12 16 15 10 4 14 14 11 26 -3 11 -2 18 3 15 12
-7 28 17 33 50 3 21 9 30 23 30 10 0 18 6 16 13 -1 6 5 12 13 12 8 0 15 5 15
10 0 6 15 28 34 48 86 93 234 316 238 356 1 12 2 28 3 36 0 8 4 21 8 27 12 20
9 115 -3 131 -2 1 -3 7 -4 13 -1 12 -18 24 -48 33 -10 3 -18 15 -18 27 0 40
-23 87 -44 93 -33 9 -47 7 -116 -17z m10 -94 c0 -24 -84 -121 -142 -163 -42
-31 -66 -55 -62 -62 5 -7 3 -8 -5 -4 -14 9 -53 -22 -45 -35 3 -5 -1 -7 -8 -4
-7 3 -32 -13 -56 -35 -24 -22 -48 -40 -54 -40 -5 0 -7 -7 -4 -16 4 -10 2 -13
-6 -8 -6 4 -16 0 -22 -8 -6 -8 -23 -23 -38 -32 -16 -10 -28 -25 -28 -32 0 -8
-4 -13 -9 -12 -13 4 -160 -132 -157 -145 1 -7 1 -8 -2 -4 -2 4 -28 -16 -57
-44 -30 -29 -51 -57 -48 -62 3 -6 2 -7 -3 -4 -15 9 -97 -79 -88 -94 4 -7 3
-10 -3 -6 -6 4 -25 -10 -42 -31 -17 -20 -39 -45 -47 -54 -9 -9 -13 -21 -9 -27
3 -6 0 -9 -9 -5 -9 3 -17 -2 -21 -15 -3 -12 -10 -21 -15 -21 -4 0 -10 -8 -14
-17 -5 -18 -26 -53 -36 -63 -12 -12 -100 -130 -100 -135 0 -2 -15 -21 -34 -42
-19 -21 -46 -51 -60 -68 l-26 -30 17 50 c37 111 153 277 353 503 105 118 379
388 448 441 42 32 88 69 102 81 27 25 236 191 285 227 31 23 45 28 45 16z
m-1275 -132 c3 -5 2 -12 -3 -15 -5 -3 -9 1 -9 9 0 17 3 19 12 6z m762 -6 c0
-8 -4 -12 -9 -9 -5 3 -6 10 -3 15 9 13 12 11 12 -6z m2916 0 c-3 -9 -8 -14
-10 -11 -3 3 -2 9 2 15 9 16 15 13 8 -4z m-3493 -40 c-6 -8 -8 -20 -4 -26 4
-8 3 -9 -4 -5 -7 4 -12 3 -12 -1 0 -10 -90 -102 -155 -158 -26 -22 -52 -45
-58 -51 -30 -26 -151 -117 -192 -143 -24 -15 -41 -31 -38 -35 4 -4 0 -4 -10 0
-9 3 -17 1 -17 -4 0 -6 -9 -14 -20 -17 -11 -4 -17 -11 -14 -17 4 -6 3 -8 -3
-5 -6 4 -19 0 -29 -8 -10 -8 -23 -15 -27 -15 -9 0 108 89 263 202 58 42 133
107 168 145 101 110 145 153 155 153 5 0 4 -7 -3 -15z m3785 -22 c-10 -15 -35
-45 -56 -66 -22 -21 -39 -43 -39 -49 0 -6 -3 -9 -6 -5 -3 3 -43 -26 -88 -66
-86 -75 -96 -84 -161 -131 -22 -17 -42 -32 -45 -35 -8 -10 -43 -30 -79 -46
-30 -13 -32 -17 -20 -33 13 -15 12 -16 -3 -3 -10 7 -16 17 -13 21 3 5 69 55
148 112 78 57 172 135 210 173 126 130 161 164 165 160 3 -2 -3 -17 -13 -32z
m-1090 18 c3 -5 2 -12 -3 -15 -5 -3 -9 1 -9 9 0 17 3 19 12 6z m-2090 -21 c-3
-5 -12 -10 -18 -10 -7 0 -6 4 3 10 19 12 23 12 15 0z m2912 -12 c2 -17 0 -19
-7 -8 -5 8 -6 18 -4 22 8 12 10 10 11 -14z m-179 -13 c-3 -3 -9 2 -12 12 -6
14 -5 15 5 6 7 -7 10 -15 7 -18z m172 -36 c-108 -94 -314 -237 -353 -245 -11
-2 -16 0 -13 4 4 4 12 8 17 8 5 1 13 2 19 3 5 0 7 7 4 15 -5 12 33 44 44 38 6
-5 39 37 34 43 -4 4 -2 5 3 4 11 -3 84 41 150 90 22 16 57 37 78 47 20 10 37
22 37 28 0 5 3 6 7 2 4 -4 -8 -20 -27 -37z m-3836 -34 c-44 -36 -124 -96 -178
-133 -113 -76 -142 -93 -106 -62 l25 21 -25 -6 -25 -7 23 17 c12 9 19 21 16
27 -4 7 -2 8 5 4 6 -4 8 -12 5 -18 -4 -6 1 -6 14 1 13 7 19 18 17 30 -2 14 1
18 10 14 8 -3 28 9 45 25 16 17 30 28 30 26 0 -3 9 0 20 6 11 6 17 16 14 22
-4 6 -3 8 4 5 14 -9 43 3 36 14 -3 5 0 9 5 9 6 0 34 16 63 34 86 57 87 41 2
-29z m343 50 c0 -8 -4 -12 -9 -9 -5 3 -6 10 -3 15 9 13 12 11 12 -6z m1238 6
c-9 -8 -36 -10 -30 -2 2 4 11 8 20 8 8 0 13 -3 10 -6z m2070 -41 c-3 -5 -12
-10 -18 -10 -7 0 -6 4 3 10 19 12 23 12 15 0z m-72 -15 c-3 -9 -8 -14 -10 -11
-3 3 -2 9 2 15 9 16 15 13 8 -4z m-3553 -20 c-13 -14 -26 -23 -28 -20 -7 7 29
45 41 45 6 0 0 -11 -13 -25z m3810 16 c0 -5 -15 -20 -32 -32 -29 -20 -31 -21
-18 -4 14 18 41 44 48 45 1 0 2 -4 2 -9z m-3550 -21 c0 -5 -5 -10 -11 -10 -5
0 -7 5 -4 10 3 6 8 10 11 10 2 0 4 -4 4 -10z m-68 -30 c-12 -11 -25 -20 -29
-20 -9 1 36 40 45 40 3 0 -4 -9 -16 -20z m2353 -7 c-17 -15 -53 -47 -80 -72
-28 -25 -95 -86 -150 -136 -157 -142 -181 -166 -162 -159 9 3 17 9 17 13 0 3
10 12 23 20 20 12 20 11 -3 -13 -14 -15 -36 -28 -48 -31 -13 -2 -53 -32 -90
-65 -37 -34 -75 -66 -85 -72 -16 -8 -17 -7 -8 11 6 11 20 26 30 33 10 8 48 40
83 73 35 33 99 92 142 130 44 39 84 75 90 80 96 87 254 214 266 215 3 0 -9
-12 -25 -27z m-2789 -9 c1 -9 0 -13 -4 -10 -3 4 -7 14 -8 22 -1 9 0 13 4 10 3
-4 7 -14 8 -22z m4223 9 c-7 -10 -14 -19 -15 -21 -1 -2 -4 4 -8 13 -3 9 -2 13
4 10 6 -3 10 -1 10 4 0 6 5 11 11 11 8 0 7 -6 -2 -17z m-3745 -1 c3 -5 -1 -9
-9 -9 -8 0 -12 4 -9 9 3 4 7 8 9 8 2 0 6 -4 9 -8z m3483 -17 c-15 -14 -33 -25
-39 -25 -6 0 4 11 23 24 44 32 51 32 16 1z m-3802 -5 c-10 -11 -22 -20 -28
-20 -5 0 1 9 14 20 31 25 37 25 14 0z m3003 -5 c-3 -3 -9 2 -12 12 -6 14 -5
15 5 6 7 -7 10 -15 7 -18z m555 10 c-3 -9 -8 -14 -10 -11 -3 3 -2 9 2 15 9 16
15 13 8 -4z m477 -5 c0 -5 -5 -10 -11 -10 -5 0 -7 5 -4 10 3 6 8 10 11 10 2 0
4 -4 4 -10z m-2910 -16 c0 -8 -19 -13 -24 -6 -3 5 1 9 9 9 8 0 15 -2 15 -3z
m-940 -34 c-6 -11 -15 -20 -20 -20 -5 0 -23 -13 -39 -29 -16 -16 -32 -26 -35
-23 -3 3 -6 0 -6 -6 0 -7 -5 -12 -12 -12 -6 0 -20 -8 -30 -17 -18 -16 -18 -16
-12 0 3 10 21 25 38 34 17 9 40 25 51 37 19 20 65 56 73 56 1 0 -2 -9 -8 -20z
m3800 11 c0 -9 -30 -36 -93 -81 -19 -14 -33 -28 -31 -32 3 -4 -2 -5 -11 -2
-11 5 -3 15 32 42 27 20 56 47 66 59 19 23 37 30 37 14z m-2480 -17 c0 -8 -19
-13 -24 -6 -3 5 1 9 9 9 8 0 15 -2 15 -3z m685 -4 c3 -6 -1 -7 -9 -4 -18 7
-21 14 -7 14 6 0 13 -4 16 -10z m1890 1 c3 -5 2 -12 -3 -15 -5 -3 -9 1 -9 9 0
17 3 19 12 6z m-1122 -16 c-3 -9 -8 -14 -10 -11 -3 3 -2 9 2 15 9 16 15 13 8
-4z m-1224 -84 c-33 -52 -80 -107 -136 -158 -47 -43 -91 -83 -97 -88 -6 -6
-46 -41 -89 -78 -138 -120 -102 -60 55 91 84 81 189 184 233 229 44 46 81 83
82 83 2 0 -20 -36 -48 -79z m-1993 34 c-1 -8 -5 -17 -8 -21 -5 -4 -4 16 1 34
3 9 9 -1 7 -13z m3699 6 c3 -5 2 -12 -3 -15 -5 -3 -9 1 -9 9 0 17 3 19 12 6z
m40 -10 c3 -5 2 -12 -3 -15 -5 -3 -9 1 -9 9 0 17 3 19 12 6z m-3850 -11 c3 -6
-1 -7 -9 -4 -18 7 -21 14 -7 14 6 0 13 -4 16 -10z m1359 2 c3 -5 -1 -9 -9 -9
-8 0 -12 4 -9 9 3 4 7 8 9 8 2 0 6 -4 9 -8z m481 -2 c-3 -5 -12 -10 -18 -10
-7 0 -6 4 3 10 19 12 23 12 15 0z m1440 0 c-3 -5 -12 -10 -18 -10 -7 0 -6 4 3
10 19 12 23 12 15 0z m-792 -15 c-3 -9 -8 -14 -10 -11 -3 3 -2 9 2 15 9 16 15
13 8 -4z m-1953 1 c0 -3 -4 -8 -10 -11 -5 -3 -10 -1 -10 4 0 6 5 11 10 11 6 0
10 -2 10 -4z m1510 -20 c0 -2 -8 -10 -17 -17 -16 -13 -17 -12 -4 4 13 16 21
21 21 13z m2134 -4 c3 -5 -1 -9 -9 -9 -8 0 -12 4 -9 9 3 4 7 8 9 8 2 0 6 -4 9
-8z m-2500 -40 c3 -5 -1 -9 -9 -9 -8 0 -12 4 -9 9 3 4 7 8 9 8 2 0 6 -4 9 -8z
m2016 4 c0 -3 -4 -8 -10 -11 -5 -3 -10 -1 -10 4 0 6 5 11 10 11 6 0 10 -2 10
-4z m-3367 -21 c-3 -9 -8 -14 -10 -11 -3 3 -2 9 2 15 9 16 15 13 8 -4z m600 0
c-3 -9 -8 -14 -10 -11 -3 3 -2 9 2 15 9 16 15 13 8 -4z m1484 0 c0 -8 -4 -12
-9 -9 -5 3 -6 10 -3 15 9 13 12 11 12 -6z m1603 -13 c0 -4 -15 -16 -32 -26
l-33 -18 30 26 c34 28 35 29 35 18z m-2276 -10 c3 -5 -1 -9 -9 -9 -8 0 -12 4
-9 9 3 4 7 8 9 8 2 0 6 -4 9 -8z m966 -16 c0 -2 -8 -10 -17 -17 -16 -13 -17
-12 -4 4 13 16 21 21 21 13z m-386 -24 c3 -5 -1 -9 -9 -9 -8 0 -12 4 -9 9 3 4
7 8 9 8 2 0 6 -4 9 -8z m836 4 c0 -2 -7 -7 -16 -10 -8 -3 -12 -2 -9 4 6 10 25
14 25 6z m-2631 -71 c-12 -20 -40 -51 -63 -69 -54 -44 -199 -138 -256 -165
l-45 -22 50 46 c28 25 97 78 155 117 58 39 121 84 140 100 19 15 36 28 37 28
1 0 -7 -16 -18 -35z m2535 27 c3 -5 -1 -9 -9 -9 -8 0 -12 4 -9 9 3 4 7 8 9 8
2 0 6 -4 9 -8z m976 4 c0 -2 -7 -7 -16 -10 -8 -3 -12 -2 -9 4 6 10 25 14 25 6z
m-2940 -26 c0 -5 -5 -10 -11 -10 -5 0 -7 5 -4 10 3 6 8 10 11 10 2 0 4 -4 4
-10z m2191 -39 c-22 -43 -124 -135 -159 -144 -15 -3 11 27 75 88 54 52 99 94
101 95 1 0 -6 -17 -17 -39z m514 19 c-3 -5 -12 -10 -18 -10 -7 0 -6 4 3 10 19
12 23 12 15 0z m-3840 -20 c-3 -5 -13 -10 -21 -10 -8 0 -14 -5 -14 -11 0 -5
-4 -8 -9 -5 -5 4 -21 2 -35 -4 -14 -5 -26 -6 -26 -1 0 4 24 15 53 23 28 9 53
16 55 17 2 0 0 -3 -3 -9z m92 -15 c0 -8 -4 -12 -9 -9 -5 3 -6 10 -3 15 9 13
12 11 12 -6z m3692 11 c-10 -10 -89 -33 -94 -27 -4 3 13 11 37 17 49 14 63 16
57 10z m-3749 -10 c0 -3 -4 -8 -10 -11 -5 -3 -10 -1 -10 4 0 6 5 11 10 11 6 0
10 -2 10 -4z m1104 -4 c2 -4 -4 -8 -14 -8 -10 0 -16 4 -14 8 3 4 9 8 14 8 5 0
11 -4 14 -8z m821 -40 c-21 -20 -32 -28 -24 -17 23 32 54 63 59 58 2 -2 -13
-20 -35 -41z m781 20 c-8 -16 -31 -42 -50 -57 -19 -15 -33 -33 -29 -38 3 -6 1
-7 -5 -3 -6 4 -17 -2 -24 -14 -7 -11 -19 -20 -26 -20 -7 0 -10 -5 -6 -12 4 -6
3 -8 -3 -5 -13 8 -36 -17 -25 -28 4 -5 1 -5 -6 -1 -7 4 -20 2 -28 -5 -8 -6
-17 -10 -19 -7 -3 3 14 23 37 45 24 22 75 70 113 106 39 37 73 67 78 67 4 0 1
-13 -7 -28z m-1172 -8 c3 -8 2 -12 -4 -9 -6 3 -10 10 -10 16 0 14 7 11 14 -7z
m-1584 -8 c0 -2 -8 -10 -17 -17 -16 -13 -17 -12 -4 4 13 16 21 21 21 13z m55
-6 c-3 -5 -12 -10 -18 -10 -7 0 -6 4 3 10 19 12 23 12 15 0z m3550 -8 c-3 -3
-11 0 -18 7 -9 10 -8 11 6 5 10 -3 15 -9 12 -12z m-2574 -29 c13 -16 12 -17
-3 -4 -17 13 -22 21 -14 21 2 0 10 -8 17 -17z m-1277 -1 c3 -5 -1 -9 -9 -9 -8
0 -12 4 -9 9 3 4 7 8 9 8 2 0 6 -4 9 -8z m1881 -2 c-3 -5 -12 -10 -18 -10 -7
0 -6 4 3 10 19 12 23 12 15 0z m-1734 -33 c-10 -9 -11 -8 -5 6 3 10 9 15 12
12 3 -3 0 -11 -7 -18z m577 -2 c-6 -14 -17 -25 -25 -25 -7 0 -30 -15 -50 -33
-51 -44 -176 -117 -203 -117 -11 0 -37 -7 -58 -15 -20 -9 -49 -17 -64 -19 -23
-3 -26 -1 -17 11 7 7 14 12 16 9 2 -2 41 15 86 39 45 23 94 45 110 49 30 7
170 91 188 112 19 23 29 16 17 -11z m1417 15 c3 -5 1 -10 -4 -10 -6 0 -11 5
-11 10 0 6 2 10 4 10 3 0 8 -4 11 -10z m70 -23 c-12 -42 -28 -65 -47 -70 -13
-4 -17 -10 -12 -18 4 -8 3 -10 -4 -5 -6 4 -18 -4 -26 -17 -15 -22 -57 -30 -73
-13 -5 4 -3 6 2 4 15 -5 57 41 49 54 -4 7 -3 8 5 4 7 -5 27 7 49 28 20 20 40
36 45 36 5 0 6 7 3 16 -3 9 -2 12 5 9 5 -4 7 -16 4 -28z m355 27 c0 -8 -19
-13 -24 -6 -3 5 1 9 9 9 8 0 15 -2 15 -3z m-2556 -22 c3 -5 -1 -9 -9 -9 -8 0
-12 4 -9 9 3 4 7 8 9 8 2 0 6 -4 9 -8z m1743 -17 c0 -8 -4 -12 -9 -9 -5 3 -6
10 -3 15 9 13 12 11 12 -6z m-762 -5 c3 -5 1 -10 -4 -10 -6 0 -11 5 -11 10 0
6 2 10 4 10 3 0 8 -4 11 -10z m1490 -20 c3 -6 -1 -7 -9 -4 -18 7 -21 14 -7 14
6 0 13 -4 16 -10z m-1815 -25 c0 -6 -151 -117 -155 -113 -3 3 146 118 153 118
1 0 2 -2 2 -5z m2208 -25 c-7 -10 -14 -17 -17 -15 -4 4 18 35 25 35 2 0 -1 -9
-8 -20z m-2193 -17 c-8 -32 -32 -57 -63 -67 -12 -4 -20 -12 -17 -17 3 -5 -1
-6 -9 -3 -10 4 -16 1 -16 -7 0 -7 -3 -9 -7 -6 -3 4 -12 2 -20 -5 -11 -8 -12
-7 -7 5 3 8 12 18 20 21 9 3 12 11 8 17 -4 7 -3 9 4 5 6 -3 18 4 26 16 9 12
16 19 16 15 0 -5 15 6 33 22 17 17 34 31 36 31 2 0 0 -12 -4 -27z m2875 13 c0
-19 -22 -36 -45 -36 -12 0 -26 -5 -32 -11 -8 -8 -13 -8 -18 0 -3 6 -3 10 2 9
12 -4 64 33 59 41 -3 4 4 8 15 8 10 1 19 -4 19 -11z m195 5 c3 -5 2 -12 -3
-15 -5 -3 -9 1 -9 9 0 17 3 19 12 6z m-970 -71 c-3 -5 -12 -10 -18 -10 -7 0
-6 4 3 10 19 12 23 12 15 0z m-2095 -43 c-1 -19 -119 -88 -159 -93 -19 -3 -46
-12 -59 -20 -13 -9 -26 -14 -28 -11 -3 3 -20 1 -39 -3 -28 -6 -34 -5 -38 12
-4 16 -3 17 9 7 11 -9 17 -9 29 1 8 7 15 9 15 5 0 -4 6 -3 13 3 26 21 131 72
148 72 10 0 24 6 31 13 7 8 18 12 24 10 6 -2 17 3 24 12 13 16 30 12 30 -8z
m1990 19 c0 -2 -8 -10 -17 -17 -16 -13 -17 -12 -4 4 13 16 21 21 21 13z
m-1569 -23 c13 -16 12 -17 -3 -4 -10 7 -18 15 -18 17 0 8 8 3 21 -13z m2309 5
c0 -4 -4 -8 -9 -8 -6 0 -12 4 -15 8 -3 5 1 9 9 9 8 0 15 -4 15 -9z m55 2 c3
-5 1 -10 -4 -10 -6 0 -11 5 -11 10 0 6 2 10 4 10 3 0 8 -4 11 -10z m-1404 -33
c-10 -9 -11 -8 -5 6 3 10 9 15 12 12 3 -3 0 -11 -7 -18z m639 -3 c0 -8 -19
-13 -24 -6 -3 5 1 9 9 9 8 0 15 -2 15 -3z m-739 -77 c-10 -9 -11 -8 -5 6 3 10
9 15 12 12 3 -3 0 -11 -7 -18z m-938 -22 c-3 -9 -8 -14 -10 -11 -3 3 -2 9 2
15 9 16 15 13 8 -4z m-579 -23 c3 -5 -1 -9 -9 -9 -8 0 -12 4 -9 9 3 4 7 8 9 8
2 0 6 -4 9 -8z m1346 -6 c-7 -7 -13 -7 -20 0 -6 6 -3 10 10 10 13 0 16 -4 10
-10z m75 4 c3 -5 1 -10 -4 -10 -6 0 -11 5 -11 10 0 6 2 10 4 10 3 0 8 -4 11
-10z m2356 -33 c-10 -9 -11 -8 -5 6 3 10 9 15 12 12 3 -3 0 -11 -7 -18z
m-4006 -7 c3 -6 -1 -7 -9 -4 -18 7 -21 14 -7 14 6 0 13 -4 16 -10z m1475 6 c0
-2 -7 -7 -16 -10 -8 -3 -12 -2 -9 4 6 10 25 14 25 6z m795 -14 c-3 -3 -11 0
-18 7 -9 10 -8 11 6 5 10 -3 15 -9 12 -12z m-698 -7 c0 -8 -4 -15 -9 -15 -10
0 -11 14 -1 23 9 10 10 9 10 -8z m-1797 -25 c0 -5 -5 -10 -11 -10 -5 0 -7 5
-4 10 3 6 8 10 11 10 2 0 4 -4 4 -10z m160 0 c0 -5 -5 -10 -11 -10 -5 0 -7 5
-4 10 3 6 8 10 11 10 2 0 4 -4 4 -10z m795 -39 c-9 -8 -36 -10 -30 -2 2 4 11
8 20 8 8 0 13 -3 10 -6z"/>
<path d="M5669 3953 c-13 -16 -12 -17 4 -4 16 13 21 21 13 21 -2 0 -10 -8 -17
-17z"/>
<path d="M1697 4481 l-29 -28 32 1 c28 1 33 5 36 29 3 34 -3 33 -39 -2z"/>
<path d="M1678 4430 c-15 -4 -30 -5 -34 -1 -4 3 -4 1 0 -6 3 -6 2 -14 -4 -18
-5 -3 -10 -1 -10 5 0 6 -4 8 -10 5 -16 -10 -11 -22 11 -28 15 -4 31 3 53 24
17 16 29 29 26 28 -3 0 -17 -4 -32 -9z m2 -14 c0 -2 -7 -7 -16 -10 -8 -3 -12
-2 -9 4 6 10 25 14 25 6z"/>
<path d="M1515 4259 c-9 -14 -2 -20 14 -10 8 6 9 11 3 15 -6 3 -14 1 -17 -5z"/>
<path d="M1430 4179 c-23 -22 -39 -43 -36 -46 8 -8 73 44 86 67 17 32 -5 23
-50 -21z"/>
<path d="M6340 4021 c-20 -17 -31 -33 -26 -38 5 -4 11 -2 13 5 3 6 9 12 14 12
6 0 -13 -33 -42 -74 -71 -102 -57 -120 17 -22 96 127 89 115 73 132 -13 12
-19 10 -49 -15z"/>
<path d="M1026 4009 c-11 -10 -17 -21 -14 -24 2 -3 15 6 28 20 27 29 14 33
-14 4z"/>
<path d="M1161 3903 c-86 -82 -132 -133 -119 -133 2 0 55 52 118 115 62 63
111 115 109 115 -3 0 -52 -44 -108 -97z"/>
<path d="M970 3711 c0 -5 -8 -8 -17 -7 -10 0 -17 -5 -15 -11 1 -7 -5 -13 -13
-13 -8 0 -15 -5 -15 -10 0 -12 -12 -28 -53 -71 -54 -56 -10 -28 56 36 59 57
79 85 62 85 -3 0 -5 -4 -5 -9z"/>
<path d="M686 3554 c-5 -14 -4 -15 9 -4 17 14 19 20 6 20 -5 0 -12 -7 -15 -16z"/>
<path d="M5974 3347 c-5 -7 -21 -20 -35 -29 -19 -14 -20 -16 -4 -11 11 3 25
10 31 14 6 5 14 6 17 2 4 -3 7 3 7 15 0 25 -1 26 -16 9z"/>
<path d="M2018 2763 c-40 -42 -88 -106 -198 -262 -24 -33 -31 -36 -85 -41 -53
-5 -56 -6 -25 -11 35 -6 34 -6 -8 -7 -32 -2 -41 1 -36 11 5 8 3 8 -9 -2 -9 -7
-14 -17 -11 -22 3 -5 0 -9 -5 -9 -6 0 -11 4 -11 9 0 5 -10 11 -22 14 -22 6
-22 6 -4 -8 11 -8 15 -15 9 -15 -7 0 -15 5 -18 10 -4 6 -12 7 -18 4 -7 -3 2 7
18 24 41 42 50 54 58 75 4 10 12 15 18 12 6 -4 9 -1 7 6 -1 8 0 14 4 14 12 0
48 38 43 45 -3 4 2 10 9 13 8 3 20 16 26 28 8 15 9 19 1 15 -6 -4 -11 -2 -11
3 0 6 0 13 0 16 0 14 -46 55 -61 55 -21 0 -84 -72 -154 -175 -75 -113 -105
-137 -200 -164 -165 -46 -207 -77 -172 -126 13 -17 15 -17 48 1 19 10 38 24
42 29 5 6 6 2 3 -8 -4 -11 -2 -17 5 -15 6 2 11 8 11 13 1 11 28 34 41 35 4 0
7 -4 7 -10 0 -5 -7 -10 -15 -10 -8 0 -15 -5 -15 -11 0 -6 7 -8 16 -5 9 3 12 2
9 -5 -4 -6 -12 -8 -19 -6 -7 3 -23 -4 -37 -14 -25 -20 -21 -25 9 -10 9 5 29
14 44 21 22 11 26 18 22 37 -4 12 -5 23 -3 23 2 0 19 4 38 10 l34 9 -22 -23
c-11 -12 -18 -26 -14 -31 5 -4 2 -4 -6 0 -11 6 -13 4 -9 -7 4 -8 -9 -53 -28
-99 -18 -46 -34 -100 -34 -120 0 -41 29 -75 56 -65 14 5 15 4 4 -9 -10 -12
-10 -15 3 -15 10 0 14 9 12 30 -1 17 1 30 5 30 11 0 21 45 14 64 -7 18 -34 10
-34 -11 0 -12 3 -13 13 -4 10 8 14 7 14 -4 0 -8 -4 -12 -9 -9 -4 3 -5 -3 -1
-12 4 -11 2 -15 -4 -11 -6 4 -13 0 -17 -8 -3 -8 -11 -15 -18 -14 -9 0 -10 2
-1 5 7 3 9 12 6 21 -5 12 -3 14 6 8 10 -5 11 -2 7 12 -13 40 9 60 41 40 7 -5
16 0 23 12 7 13 7 22 0 26 -7 4 -7 13 0 26 6 10 7 19 3 19 -4 0 -1 5 7 11 13
9 13 10 0 6 -8 -2 -14 -10 -12 -16 1 -7 -1 -10 -6 -7 -11 7 -12 -26 -1 -39 4
-6 4 -17 -1 -25 -8 -12 -10 -10 -10 8 0 12 -5 22 -11 22 -5 0 -7 -4 -4 -10 3
-5 -2 -10 -11 -10 -15 0 -15 3 4 23 15 15 18 27 12 33 -14 14 19 96 36 90 8
-3 16 -1 19 4 8 13 25 13 25 -1 0 -5 -4 -8 -9 -4 -5 3 -12 1 -16 -5 -4 -6 -11
-7 -17 -4 -7 4 -8 2 -4 -4 4 -7 3 -12 -2 -12 -8 0 -32 -43 -32 -57 0 -4 9 3
21 15 11 12 25 19 31 16 6 -4 8 -3 4 4 -3 5 0 13 6 15 10 4 10 6 0 6 -7 1 -10
6 -7 12 5 7 14 4 28 -8 15 -12 18 -13 9 -2 -9 12 -9 20 3 35 14 19 14 19 15
-1 0 -18 2 -17 13 5 7 13 24 30 37 37 14 7 20 13 13 13 -6 0 -20 3 -30 6 -15
5 -15 4 -3 -5 8 -6 10 -11 5 -11 -6 0 -16 5 -23 12 -16 16 -16 -4 1 -21 8 -10
8 -12 0 -7 -6 3 -14 2 -18 -4 -4 -6 -11 -7 -17 -4 -7 5 -8 2 -3 -6 5 -9 4 -11
-3 -6 -8 5 -5 16 10 36 12 16 25 27 30 24 4 -3 8 0 8 6 0 6 5 8 10 5 6 -3 10
-1 10 4 0 6 5 11 11 11 8 0 8 -5 -1 -15 -15 -18 1 -20 18 -3 6 6 17 13 24 14
68 10 82 14 88 24 5 9 9 9 14 1 4 -6 22 -11 39 -11 18 0 28 -4 22 -8 -5 -4
-11 -16 -13 -26 -2 -10 -14 -35 -27 -56 -31 -49 -101 -189 -125 -250 -36 -90
-41 -166 -16 -205 10 -15 23 -24 31 -21 8 3 17 0 21 -6 5 -7 2 -8 -7 -3 -8 5
-6 -1 5 -13 16 -19 36 -22 36 -6 0 3 -4 3 -9 -1 -5 -3 -12 -1 -16 5 -3 5 -1
10 4 10 8 0 7 7 -1 19 -7 11 -16 17 -20 15 -14 -9 -4 20 12 34 8 8 9 11 3 7
-7 -3 -13 -2 -13 3 0 17 13 22 29 9 14 -10 14 -10 3 4 -10 13 -10 19 2 28 8 7
12 20 9 28 -4 11 -2 14 5 9 7 -4 12 -2 12 3 0 6 -4 11 -9 11 -5 0 -7 10 -5 23
4 20 4 20 -7 -3 -16 -33 -17 -43 -4 -52 6 -5 2 -8 -8 -8 -10 0 -16 -4 -12 -9
3 -5 1 -12 -5 -16 -5 -3 -10 1 -10 10 0 9 -5 13 -10 10 -6 -4 1 10 14 30 14
20 23 45 21 56 -2 11 0 17 6 14 5 -4 9 1 9 10 0 11 -5 15 -15 11 -8 -3 -15 -1
-15 5 0 6 10 9 21 7 23 -3 47 36 28 47 -5 4 -13 -4 -17 -16 -6 -15 -11 -19
-16 -11 -4 7 -11 10 -16 7 -5 -3 -2 8 6 25 18 35 28 40 19 9 l-7 -22 32 23
c35 25 45 43 34 61 -4 8 -12 2 -21 -17 -10 -22 -12 -24 -9 -6 3 14 0 20 -7 15
-7 -4 -8 0 -4 11 4 10 7 21 7 24 0 4 4 1 9 -7 6 -10 13 -5 25 19 19 38 20 43
6 35 -6 -4 -7 1 -3 11 4 12 8 14 11 5 3 -8 8 -7 18 6 13 17 14 17 8 -2 -4 -11
-12 -27 -19 -35 -18 -23 -25 -49 -15 -55 6 -4 10 -1 10 4 0 6 5 11 10 11 7 0
7 -7 -1 -21 -9 -17 -8 -24 7 -38 17 -15 17 -15 5 2 -10 13 -11 20 -2 31 6 7 8
22 5 32 -4 11 -4 16 1 12 4 -4 15 -2 23 5 13 10 14 8 9 -18 -6 -28 -6 -28 5
-7 9 17 8 25 -2 35 -10 9 -13 9 -17 -1 -3 -6 -9 -10 -14 -6 -10 6 14 34 30 34
5 0 13 5 17 12 4 7 3 8 -4 4 -7 -4 -12 -1 -12 6 0 8 9 14 20 14 11 0 19 -5 16
-11 -2 -7 2 -12 10 -12 17 0 18 9 3 24 -13 13 -3 36 12 27 5 -3 6 -11 2 -17
-4 -7 0 -6 10 2 9 7 17 20 17 28 0 8 4 12 9 9 5 -3 15 2 22 12 13 16 13 16 -6
2 -18 -14 -19 -14 -6 2 7 10 22 16 35 14 11 -3 21 -5 21 -6 0 -1 15 -4 33 -6
39 -6 42 7 5 23 -61 26 -83 32 -83 23 0 -6 -4 -10 -10 -10 -5 0 -6 7 -3 17 5
12 3 14 -8 8 -11 -7 -11 -5 1 11 8 10 17 21 20 24 20 18 48 69 42 75 -4 5 -2
5 4 2 7 -4 19 5 28 18 9 14 21 23 26 20 6 -4 10 3 10 14 0 11 4 22 9 25 5 3 8
-5 7 -19 0 -14 -4 -25 -7 -25 -3 0 -6 -6 -6 -14 0 -8 6 -12 13 -9 7 2 11 13 9
24 -2 11 0 17 5 14 9 -6 51 31 80 70 14 19 14 19 -4 5 -13 -10 -17 -11 -12 -2
4 7 2 20 -6 29 -9 12 -9 15 0 9 7 -4 12 -2 12 4 0 6 4 9 9 6 5 -3 15 2 22 11
12 15 12 16 -4 10 -10 -4 -16 -3 -13 1 8 14 -23 52 -42 52 -10 0 -38 -21 -64
-47z m72 -63 c0 -5 -2 -10 -4 -10 -3 0 -8 5 -11 10 -3 6 -1 10 4 10 6 0 11 -4
11 -10z m-357 -37 c-4 -11 -3 -14 5 -9 7 4 12 3 12 -2 0 -5 -12 -14 -27 -21
-19 -9 -23 -15 -15 -20 10 -6 9 -11 -3 -21 -13 -11 -15 -10 -9 6 5 16 3 16
-13 -3 -10 -12 -26 -34 -36 -48 -10 -14 -23 -23 -29 -19 -6 4 -8 -1 -4 -14 5
-15 1 -24 -14 -32 -11 -6 -20 -7 -21 -3 0 4 -4 -1 -9 -12 -8 -19 -9 -19 -9 1
-1 12 6 24 14 28 9 3 12 12 9 23 -5 14 -4 15 4 4 8 -11 11 -9 17 8 4 12 13 20
22 19 9 -2 18 3 20 10 3 8 -2 10 -14 6 -14 -5 -15 -4 -3 4 8 6 18 8 22 6 4 -3
8 -1 8 5 0 5 -3 11 -7 14 -5 2 -3 3 3 1 13 -3 34 15 34 29 0 5 -8 3 -17 -4
-16 -13 -17 -12 -5 3 8 10 20 14 29 11 11 -4 14 -2 9 5 -4 8 -2 10 7 6 11 -4
14 2 12 20 -2 15 1 24 5 21 5 -3 6 -13 3 -22z m353 12 c19 -15 19 -15 -1 -8
-11 3 -17 3 -13 -2 8 -8 -9 -35 -21 -35 -4 0 -7 10 -8 23 0 12 1 16 4 10 3 -7
9 -13 14 -13 11 0 7 23 -6 32 -7 5 -6 8 1 8 5 0 19 -7 30 -15z m-208 -165 c-7
-10 -14 -17 -17 -15 -4 4 18 35 25 35 2 0 -1 -9 -8 -20z m6 -98 c-12 -8 -28
-43 -25 -56 1 -5 -4 -4 -13 3 -11 10 -17 8 -30 -11 -9 -12 -16 -17 -16 -10 0
7 9 20 19 29 11 9 17 21 14 27 -4 6 2 4 12 -4 14 -11 17 -11 11 -1 -5 8 -3 17
5 22 17 11 39 12 23 1z m-523 -23 c-30 -10 -56 -17 -58 -15 -5 5 77 34 97 34
8 1 -9 -8 -39 -19z m439 -3 c0 -2 -8 -10 -17 -17 -16 -13 -17 -12 -4 4 13 16
21 21 21 13z m-30 -46 c0 -5 -5 -10 -11 -10 -5 0 -7 5 -4 10 3 6 8 10 11 10 2
0 4 -4 4 -10z m-165 -409 c7 -12 -12 -24 -25 -16 -11 7 -4 25 10 25 5 0 11 -4
15 -9z"/>
<path d="M1590 2495 c-11 -13 -10 -14 4 -9 9 3 16 10 16 15 0 13 -6 11 -20 -6z"/>
<path d="M2127 2725 c-16 -12 -16 -13 3 -18 11 -3 18 -1 15 3 -3 5 0 10 7 12
7 3 8 7 2 10 -5 4 -17 0 -27 -7z"/>
<path d="M3410 2653 c-80 -55 -169 -152 -300 -331 -41 -56 -80 -102 -86 -102
-5 0 -23 -13 -39 -30 -15 -16 -33 -28 -39 -27 -6 1 -10 -3 -9 -10 2 -8 -4 -10
-14 -6 -9 4 -14 2 -11 -3 2 -5 -7 -20 -20 -34 l-24 -25 20 40 c11 22 41 67 66
100 44 58 55 94 29 102 -11 4 -128 -143 -141 -177 -3 -8 -15 -23 -27 -33 -11
-10 -14 -16 -7 -12 6 3 12 1 12 -4 0 -6 -9 -11 -20 -11 -11 0 -20 -4 -20 -10
0 -5 6 -7 14 -4 8 3 24 -6 37 -20 16 -18 31 -25 55 -24 18 1 30 6 28 12 -5 14
2 23 45 61 l34 30 -22 -32 c-12 -18 -26 -35 -32 -38 -5 -4 -7 -10 -4 -15 3 -4
-2 -13 -10 -20 -11 -9 -12 -16 -4 -26 13 -15 3 -37 -13 -28 -6 4 -9 1 -6 -7 3
-8 -2 -20 -9 -28 -8 -7 -12 -20 -9 -27 3 -8 1 -14 -5 -14 -6 0 -8 -7 -5 -16 4
-10 2 -13 -6 -8 -7 5 -9 0 -6 -14 3 -12 2 -22 -3 -24 -15 -5 -27 -92 -16 -116
6 -12 14 -22 18 -22 4 0 15 -7 23 -15 12 -13 20 -14 37 -4 13 6 19 7 15 1 -3
-6 -2 -13 4 -17 5 -3 10 1 10 9 0 9 4 16 10 16 5 0 16 14 25 30 9 17 11 30 5
30 -5 0 -10 -7 -10 -16 0 -8 -5 -12 -10 -9 -6 4 -7 12 -4 18 4 7 -2 3 -13 -8
-23 -23 -21 -37 5 -28 9 3 14 3 11 -1 -4 -4 -21 -9 -38 -11 l-31 -4 38 57 c21
31 51 80 67 107 16 28 38 64 47 80 21 35 78 151 78 158 0 3 5 18 10 33 10 26
11 26 25 8 12 -14 14 -15 9 -3 -7 21 8 31 26 17 12 -8 12 -9 -2 -4 -23 7 -22
5 4 -46 28 -56 76 -104 84 -83 4 8 11 15 16 15 22 0 80 43 68 50 -8 5 -7 9 5
13 9 4 13 3 10 -3 -14 -22 7 -7 57 42 29 28 44 46 33 38 -11 -7 -4 2 17 21 20
19 42 44 48 57 10 20 8 26 -9 41 -12 10 -21 23 -21 29 0 20 -41 34 -78 27 -19
-4 -51 -17 -71 -31 -36 -24 -57 -31 -47 -15 7 11 -14 20 -31 14 -7 -3 -13 -11
-13 -19 0 -8 -5 -14 -10 -14 -7 0 -7 6 0 20 13 25 7 25 -20 3 -20 -17 -28 -39
-11 -28 5 3 13 0 17 -6 4 -8 3 -9 -4 -5 -7 4 -12 1 -12 -6 0 -8 -3 -9 -8 -3
-4 6 -13 11 -19 13 -16 3 -17 -15 -2 -20 6 -2 -2 -9 -17 -16 -25 -11 -27 -10
-12 1 19 15 13 32 -7 19 -6 -4 -3 0 7 9 9 9 14 20 10 25 -4 5 2 2 12 -6 18
-14 19 -13 13 2 -3 10 -2 17 2 15 5 -1 9 0 8 3 0 3 20 25 44 50 24 25 87 90
139 145 64 66 101 98 114 96 11 -2 16 2 12 8 -4 6 -14 11 -22 11 -8 0 -14 8
-14 18 0 41 -39 53 -80 25z m28 -53 c-7 -10 -14 -17 -17 -15 -4 4 18 35 25 35
2 0 -1 -9 -8 -20z m-34 -25 c-4 -8 -10 -15 -16 -15 -5 0 -6 -4 -3 -10 3 -5 1
-10 -5 -10 -6 0 -8 -5 -5 -10 4 -6 1 -9 -6 -8 -7 2 -13 -2 -14 -9 0 -13 -25
-42 -25 -30 0 4 -9 -1 -19 -10 -11 -9 -19 -19 -17 -22 1 -3 -17 -25 -41 -48
-56 -55 -55 -41 3 22 25 28 68 76 96 108 55 61 61 66 52 42z m53 -281 c-14
-14 -34 -27 -44 -29 -10 -2 -20 -4 -23 -4 -3 -1 2 -6 10 -12 13 -9 13 -10 0
-8 -28 3 -40 -1 -37 -12 1 -6 -6 -13 -15 -14 -33 -6 23 54 76 80 62 31 65 31
33 -1z m77 -35 c-3 -5 -9 -7 -14 -4 -4 3 -14 -3 -21 -12 -12 -14 -12 -16 0 -8
10 5 12 4 7 -3 -4 -7 -13 -12 -20 -12 -8 0 -21 -12 -31 -26 -10 -15 -22 -23
-31 -20 -8 3 -15 -1 -16 -12 0 -9 -2 -22 -2 -29 -1 -6 -4 -15 -8 -18 -3 -4 -5
5 -4 19 4 32 -6 34 -19 4 -13 -30 -76 -72 -86 -57 -5 8 -8 8 -13 0 -11 -18
-36 -13 -36 7 0 10 6 27 14 38 12 15 17 17 27 7 16 -16 33 -17 23 -1 -4 6 -3
8 3 5 6 -4 24 4 40 17 111 95 168 134 180 124 7 -6 10 -14 7 -19z m-424 -60
c0 -5 -4 -7 -10 -4 -5 3 -10 -1 -10 -10 0 -9 4 -14 9 -10 5 3 13 0 17 -6 4 -7
3 -9 -4 -5 -6 3 -13 2 -17 -4 -3 -5 -1 -10 5 -10 7 0 8 -5 3 -12 -8 -13 -9
-18 -12 -40 -1 -9 -4 -9 -12 2 -9 12 -10 11 -6 -6 2 -11 -4 -36 -14 -55 -10
-19 -18 -28 -19 -21 0 6 -5 12 -11 12 -5 0 -7 -4 -4 -10 3 -5 2 -10 -4 -10
-18 0 -23 20 -7 26 9 3 13 10 10 16 -3 5 -12 1 -19 -9 -10 -13 -10 -22 -3 -31
6 -7 8 -16 4 -19 -4 -4 -11 -1 -16 7 -11 16 -12 13 -15 -42 -1 -21 2 -38 7
-38 5 0 6 10 3 23 -5 17 -4 19 4 7 7 -9 11 -10 11 -3 0 6 -4 15 -10 18 -5 3
-10 11 -10 17 0 7 5 7 14 -1 10 -9 15 -8 20 4 3 8 10 15 15 15 5 0 -2 -20 -16
-46 -17 -30 -31 -44 -42 -41 -9 2 -15 9 -13 16 1 7 -2 9 -9 6 -7 -5 -7 -11 -1
-17 6 -6 8 -18 4 -27 -5 -14 -4 -14 13 -1 17 13 17 12 -2 -15 -11 -16 -35 -54
-53 -82 -35 -58 -43 -64 -36 -30 18 93 94 252 186 387 9 14 19 33 23 43 7 18
27 24 27 6z m-100 -13 c0 -2 -8 -10 -17 -17 -16 -13 -17 -12 -4 4 13 16 21 21
21 13z m-26 -325 c-14 -23 -29 -41 -31 -41 -3 0 1 10 9 23 8 12 21 32 29 44 7
12 15 20 17 18 2 -2 -9 -22 -24 -44z"/>
<path d="M3360 2143 c0 -6 -11 -14 -25 -17 -27 -7 -34 -23 -10 -23 18 0 51 34
42 44 -4 3 -7 2 -7 -4z"/>
<path d="M3262 2105 c-7 -16 -8 -25 -1 -25 5 0 12 7 16 16 5 13 7 13 14 2 5
-8 9 -9 9 -2 0 6 -6 17 -13 23 -11 8 -16 5 -25 -14z"/>
<path d="M3066 2148 c-8 -13 -16 -30 -18 -38 -2 -8 -9 -20 -17 -26 -11 -9 -12
-12 -1 -19 8 -5 11 -4 7 2 -4 6 0 14 9 17 8 3 12 10 9 16 -5 9 6 14 26 12 3
-1 5 12 5 29 0 35 -1 35 -20 7z m5 -21 c-10 -9 -11 -8 -5 6 3 10 9 15 12 12 3
-3 0 -11 -7 -18z"/>
<path d="M3050 2060 c-6 -11 -8 -20 -6 -20 3 0 10 9 16 20 6 11 8 20 6 20 -3
0 -10 -9 -16 -20z"/>
<path d="M2917 1855 c-4 -8 -3 -16 1 -19 4 -3 9 4 9 15 2 23 -3 25 -10 4z"/>
<path d="M2903 1823 c4 -3 1 -13 -6 -22 -11 -14 -10 -14 5 -2 16 12 16 31 1
31 -4 0 -3 -3 0 -7z"/>
<path d="M2949 2616 c-42 -29 -156 -162 -226 -263 -53 -76 -94 -166 -98 -213
-2 -29 13 -80 25 -80 4 0 20 -12 35 -27 24 -25 27 -26 21 -7 -5 16 0 25 16 36
49 33 158 155 162 183 1 8 11 24 21 37 11 13 -5 0 -35 -29 -126 -119 -153
-141 -168 -135 -11 4 -13 2 -7 -8 5 -8 4 -11 -3 -6 -8 4 -8 15 0 36 11 33 23
42 13 10 -4 -13 -2 -20 6 -20 7 0 9 3 6 6 -3 4 -2 16 4 27 8 14 8 18 0 13 -6
-4 -11 -2 -11 3 0 6 10 10 23 9 24 -2 77 28 77 44 0 5 4 7 9 3 6 -3 13 0 18 7
4 7 26 29 48 48 22 20 41 40 43 45 1 6 5 10 10 10 4 0 20 13 36 28 16 15 33
27 39 27 5 0 29 10 53 22 47 23 61 44 19 28 -17 -6 -25 -6 -25 1 0 6 -4 8 -9
4 -5 -3 -13 0 -17 7 -4 7 -4 10 1 6 5 -5 15 2 23 13 12 17 12 23 2 29 -9 6 -8
11 6 20 15 9 15 10 2 6 -9 -3 -19 -1 -22 5 -2 5 -3 4 -2 -3 2 -7 -1 -22 -7
-32 -8 -16 -6 -18 7 -13 10 4 15 3 11 -3 -3 -6 -13 -10 -21 -10 -8 0 -14 -10
-14 -22 0 -16 -3 -19 -9 -10 -6 10 -10 10 -21 -3 -7 -8 -18 -15 -25 -15 -14 0
-27 -48 -13 -52 4 -2 -1 -9 -13 -17 -20 -12 -21 -11 -15 6 6 16 5 16 -9 -1 -8
-11 -15 -24 -15 -29 0 -4 -4 -6 -9 -3 -13 8 -34 -21 -28 -38 4 -10 0 -12 -14
-9 -11 3 -19 0 -19 -6 0 -7 5 -9 12 -5 7 4 8 3 4 -5 -6 -9 -11 -9 -21 -1 -9 8
-15 6 -20 -7 -5 -10 -7 -25 -6 -33 4 -22 -9 -6 -14 18 -2 14 17 40 73 94 125
120 200 216 184 234 -4 4 -1 4 6 0 7 -4 10 -12 7 -17 -4 -5 -1 -9 4 -9 19 0
12 14 -22 46 -47 45 -50 45 -88 20z m40 -58 c-7 -12 -12 -27 -10 -33 1 -5 -1
-7 -5 -3 -4 4 -20 -10 -36 -31 -15 -21 -44 -46 -63 -55 -19 -9 -37 -22 -41
-29 -5 -9 -4 -9 7 1 7 6 16 12 21 12 12 0 -43 -55 -55 -55 -7 -1 -11 -5 -10
-10 0 -6 -11 -19 -25 -30 l-27 -20 19 30 c52 80 154 198 201 232 35 25 41 23
24 -9z m-79 -233 c0 -1 -9 -10 -19 -19 -19 -17 -19 -17 -16 1 2 10 4 18 4 19
2 2 31 1 31 -1z m-86 -73 c3 -5 -1 -9 -9 -9 -8 0 -12 4 -9 9 3 4 7 8 9 8 2 0
6 -4 9 -8z m56 -5 c0 -2 -12 -14 -27 -28 l-28 -24 24 28 c23 25 31 32 31 24z
m-103 -24 c3 -7 -6 -17 -19 -23 -22 -11 -22 -10 -4 4 11 9 17 19 13 23 -4 3
-16 -2 -26 -11 -11 -10 -25 -15 -30 -11 -6 3 -11 0 -11 -8 0 -8 -7 -28 -15
-43 -8 -16 -12 -37 -9 -46 3 -10 1 -18 -5 -18 -17 0 -13 51 7 90 12 24 23 34
36 32 12 -2 16 1 10 9 -4 7 -3 10 4 5 6 -3 14 -2 17 4 8 13 27 8 32 -7z"/>
<path d="M2932 2516 c-26 -26 -39 -47 -33 -51 10 -6 15 1 12 18 0 4 3 7 8 7 5
0 21 16 35 35 15 19 26 35 24 35 -2 0 -22 -20 -46 -44z"/>
<path d="M1941 2526 c-30 -39 -47 -65 -38 -57 15 12 21 9 18 -11 -3 -19 15 -5
31 23 10 16 14 27 8 24 -5 -3 -11 -1 -15 5 -5 9 15 15 38 11 5 -1 6 3 3 8 -3
5 1 11 9 15 13 5 16 38 4 50 -2 2 -28 -28 -58 -68z m35 16 c-18 -16 -18 -16
-6 6 6 13 14 21 18 18 3 -4 -2 -14 -12 -24z m-32 -57 c-4 -8 -10 -12 -15 -9
-11 6 -2 24 11 24 5 0 7 -7 4 -15z"/>
<path d="M3496 2564 c-9 -8 -14 -19 -11 -24 3 -5 -4 -12 -16 -15 -11 -4 -18
-9 -16 -11 3 -3 -11 -21 -31 -40 -37 -36 -35 -66 2 -38 11 8 16 14 12 14 -5 0
2 9 15 20 13 10 21 19 17 20 -3 0 7 14 23 31 16 17 27 35 24 39 -3 5 1 11 7
13 9 4 9 6 1 6 -6 1 -19 -6 -27 -15z m-46 -83 c0 -5 -7 -12 -16 -15 -14 -5
-15 -4 -4 9 14 17 20 19 20 6z"/>
<path d="M3327 2381 c-25 -27 -48 -46 -51 -43 -3 3 -6 0 -6 -7 0 -21 42 -1 83
41 25 25 36 43 30 49 -6 6 -27 -8 -56 -40z m53 36 c0 -2 -19 -21 -42 -42 l-43
-40 40 43 c36 39 45 47 45 39z"/>
<path d="M3091 2406 c-6 -7 -22 -11 -36 -8 -14 2 -25 0 -25 -6 0 -6 10 -9 21
-7 12 3 18 1 15 -3 -4 -4 -11 -7 -14 -7 -4 -1 -18 -7 -31 -14 -14 -8 -21 -9
-17 -2 4 6 2 11 -3 11 -6 0 -11 -4 -11 -9 0 -16 20 -23 33 -13 7 5 29 15 49
21 27 9 36 17 35 32 -2 23 -1 23 -16 5z"/>
<path d="M4588 2372 c-23 -27 -51 -51 -60 -55 -10 -3 -18 -10 -18 -14 0 -5
-18 -19 -40 -33 -22 -14 -40 -28 -40 -33 0 -4 -5 -5 -12 -1 -8 5 -9 2 -5 -9 4
-10 2 -16 -6 -14 -7 1 -11 -4 -10 -10 2 -7 -3 -12 -10 -10 -6 1 -11 -4 -10
-10 2 -7 -2 -13 -7 -13 -17 0 -12 13 30 74 22 32 40 64 40 71 0 18 -32 43 -37
29 -21 -61 -111 -152 -136 -137 -6 4 -8 0 -4 -9 3 -9 -3 -24 -14 -34 -12 -11
-19 -13 -19 -5 0 7 -4 10 -9 7 -11 -7 -8 20 3 31 4 4 6 2 4 -6 -1 -7 2 -15 9
-18 8 -3 11 3 8 16 -2 12 1 21 6 21 6 0 7 5 4 10 -3 6 -1 10 5 10 6 0 8 4 5
10 -3 5 1 20 10 33 17 26 11 57 -11 57 -8 0 -14 -4 -14 -8 0 -11 -119 -112
-131 -112 -5 0 -9 5 -9 11 0 5 4 8 9 5 5 -3 14 1 21 9 20 24 -7 18 -31 -6 -14
-14 -18 -24 -11 -28 7 -4 3 -12 -11 -20 -21 -13 -21 -13 -7 4 14 17 13 18 -3
12 -10 -4 -21 -7 -23 -7 -3 0 -3 -4 1 -10 3 -5 -11 -26 -31 -47 l-37 -38 28
50 c35 62 65 96 78 88 6 -4 8 0 4 9 -3 9 -3 19 1 22 18 18 4 66 -19 66 -5 0
-25 -25 -45 -55 -37 -55 -48 -63 -59 -45 -3 6 -1 10 4 10 6 0 11 5 11 10 0 6
-11 3 -25 -6 -14 -9 -25 -21 -24 -28 0 -7 2 -6 6 2 2 6 9 12 14 12 6 0 7 -5 4
-10 -4 -6 -3 -9 2 -8 4 2 9 -1 11 -5 4 -10 -31 -86 -40 -87 -11 0 -28 36 -21
44 15 14 11 35 -5 28 -10 -4 -12 -7 -4 -10 7 -2 9 -8 6 -13 -7 -12 -34 8 -34
25 0 6 14 19 31 28 17 10 27 22 24 28 -3 6 1 13 9 16 9 3 14 10 11 14 -3 4 1
13 9 19 10 9 15 8 19 -3 4 -11 1 -13 -10 -9 -10 4 -14 2 -9 -5 3 -6 -2 -15
-11 -21 -16 -9 -16 -10 -1 -11 9 0 20 5 23 10 4 6 10 8 14 5 5 -2 18 6 30 19
23 24 16 41 -12 30 -8 -3 -18 -1 -22 5 -3 6 0 9 8 5 8 -3 18 1 23 8 4 7 4 10
-1 6 -5 -5 -13 2 -19 15 -24 48 -81 31 -193 -60 -45 -36 -54 -64 -32 -105 9
-17 4 -26 -40 -65 -28 -25 -51 -51 -51 -58 0 -19 51 -57 68 -50 12 4 13 3 2
-10 -7 -9 -8 -15 -2 -15 6 0 17 -3 26 -6 11 -4 16 -1 16 10 0 9 5 16 11 16 5
0 7 -5 4 -10 -10 -17 67 29 97 57 15 15 25 33 23 44 -2 11 0 17 6 14 5 -4 9
-13 9 -21 0 -8 12 -26 26 -39 28 -26 51 -34 38 -13 -4 7 -3 8 4 4 6 -4 9 -13
5 -21 -7 -20 21 -19 53 1 14 10 23 23 20 30 -3 8 -1 14 5 14 6 0 7 5 4 10 -9
15 -27 1 -21 -16 3 -7 0 -16 -6 -20 -6 -4 -8 -3 -4 4 3 6 1 14 -5 18 -9 5 -10
1 -7 -14 5 -19 4 -20 -14 -11 -19 10 -17 14 28 54 49 43 73 53 40 16 -11 -12
-13 -21 -7 -25 6 -4 7 -14 4 -23 -4 -11 -3 -14 5 -9 7 4 12 3 12 -3 0 -6 11
-13 25 -17 13 -3 23 -11 22 -17 -3 -18 55 -8 69 11 9 13 9 19 1 24 -19 12 -2
9 36 -7 19 -8 37 -21 41 -30 8 -21 43 -11 76 23 21 22 22 24 5 18 -32 -13 -48
-12 -51 2 -1 7 0 8 3 2 8 -18 22 -11 18 9 -2 11 7 30 22 45 21 22 29 38 32 69
1 4 6 7 12 7 6 0 8 -7 5 -16 -6 -14 -4 -15 9 -4 13 11 13 15 3 21 -19 12 80
111 103 104 9 -3 22 2 29 10 11 13 10 14 -4 9 -9 -3 -16 -2 -16 4 0 8 15 18
40 27 25 9 40 19 40 28 0 5 -10 2 -22 -9 -15 -12 -14 -8 5 12 15 16 27 33 27
37 0 18 -22 3 -62 -41z m-670 -71 c-13 -16 -29 -26 -37 -23 -10 4 -12 1 -6 -8
5 -9 4 -11 -3 -6 -7 4 -12 3 -12 -3 0 -5 7 -11 15 -13 10 -2 5 -9 -16 -20 -16
-10 -27 -13 -24 -8 3 6 1 10 -4 10 -6 0 -11 -5 -11 -12 0 -6 -3 -8 -7 -5 -9 9
23 43 77 83 55 41 58 41 28 5z m382 -115 c0 -2 -8 -10 -17 -17 -16 -13 -17
-12 -4 4 13 16 21 21 21 13z m-80 -48 c0 -6 -6 -5 -15 2 -8 7 -15 14 -15 16 0
2 7 1 15 -2 8 -4 15 -11 15 -16z m-422 -34 c-21 -19 -43 -34 -50 -34 -7 0 6
19 30 41 24 23 46 38 50 34 4 -4 -10 -22 -30 -41z m474 14 c-7 -7 -12 -21 -12
-32 0 -10 -3 -16 -7 -13 -10 10 -32 -13 -27 -28 3 -7 1 -16 -5 -20 -7 -3 -8 0
-5 10 5 11 2 14 -10 9 -9 -3 -13 -11 -9 -17 3 -6 1 -7 -6 -3 -8 6 -8 12 1 25
19 27 82 88 87 84 3 -2 -1 -9 -7 -15z m-356 -11 c-1 -22 -46 -81 -46 -61 0 5
-4 3 -9 -5 -8 -12 -12 -12 -24 -2 -10 8 -17 9 -22 1 -3 -5 -1 -10 5 -10 6 0 8
-5 4 -11 -4 -8 -9 -7 -15 2 -9 15 -11 13 -27 -16 -10 -19 -11 -19 -9 4 1 15
14 32 37 46 19 12 43 32 54 43 10 12 22 19 27 17 4 -3 10 -1 14 5 9 15 12 12
11 -13z m420 -83 c1 -9 0 -13 -4 -10 -3 4 -7 14 -8 22 -1 9 0 13 4 10 3 -4 7
-14 8 -22z"/>
<path d="M3840 2239 c0 -5 5 -7 10 -4 6 3 10 8 10 11 0 2 -4 4 -10 4 -5 0 -10
-5 -10 -11z"/>
<path d="M3870 2081 c-30 -29 -42 -54 -15 -31 8 7 15 10 15 6 0 -12 36 29 36
42 1 17 -2 16 -36 -17z"/>
<path d="M3125 2400 c-3 -6 1 -7 9 -4 18 7 21 14 7 14 -6 0 -13 -4 -16 -10z"/>
<path d="M1675 2390 c-4 -6 -9 -8 -13 -6 -4 2 -14 -3 -22 -12 -13 -14 -12 -15
5 -8 11 5 25 9 31 9 6 0 11 6 11 14 0 16 -4 17 -12 3z"/>
<path d="M1701 2384 c0 -11 3 -14 6 -6 3 7 2 16 -1 19 -3 4 -6 -2 -5 -13z"/>
<path d="M3005 2380 c3 -5 11 -10 16 -10 6 0 7 5 4 10 -3 6 -11 10 -16 10 -6
0 -7 -4 -4 -10z"/>
<path d="M1964 2372 c4 -3 19 -6 34 -7 15 -1 34 -5 42 -10 12 -6 13 -5 3 5 -7
7 -28 14 -48 16 -20 1 -34 -1 -31 -4z"/>
<path d="M4653 2345 c-18 -19 -37 -35 -43 -35 -6 0 -9 -4 -5 -9 3 -6 -5 -15
-17 -22 -12 -7 -59 -49 -105 -94 -45 -45 -84 -81 -86 -79 -2 3 -10 -3 -18 -13
-9 -11 -10 -14 -1 -9 6 4 12 3 12 -3 0 -5 -6 -12 -12 -15 -7 -3 -2 -3 12 0 14
3 32 13 40 21 8 9 9 13 3 9 -7 -4 -13 -2 -13 3 0 6 5 11 12 11 6 0 9 2 6 5 -6
7 36 50 151 155 69 63 111 110 99 110 -2 0 -18 -16 -35 -35z"/>
<path d="M2145 2300 c-20 -27 -49 -59 -65 -70 -16 -11 -32 -29 -35 -40 -4 -11
-11 -20 -16 -20 -5 0 -4 10 3 23 7 12 13 27 13 32 1 6 6 9 13 8 40 -9 -37 89
-79 100 -43 11 -229 -199 -229 -258 0 -20 47 -68 59 -61 5 3 15 -2 22 -12 13
-15 12 -16 -3 -3 -12 8 -18 9 -18 2 0 -14 50 -27 59 -15 3 5 13 10 21 12 33 8
80 44 80 63 0 11 -4 18 -10 14 -5 -3 -7 -13 -4 -23 5 -16 5 -16 -6 1 -6 9 -16
17 -22 17 -6 0 -6 -6 2 -15 10 -12 10 -19 2 -27 -7 -7 -12 -8 -12 -2 0 5 -5 2
-10 -6 -9 -13 -10 -13 -10 0 0 13 -1 13 -10 0 -8 -12 -9 -10 -7 7 2 12 16 32
33 44 16 12 46 38 67 58 20 19 37 30 37 24 0 -7 -7 -16 -15 -21 -27 -15 -24
-64 6 -90 25 -21 66 -22 53 -1 -3 5 2 6 10 3 9 -3 16 -10 16 -16 0 -5 -4 -7
-9 -4 -5 3 -14 -1 -20 -8 -9 -10 -9 -16 -1 -21 15 -9 43 2 35 15 -3 5 -1 10 6
10 7 0 3 10 -10 24 -17 18 -19 26 -10 31 8 5 10 4 5 -3 -4 -7 -3 -12 3 -12 10
0 27 39 23 53 -1 5 2 6 8 2 5 -3 11 -1 11 4 1 6 2 17 3 24 0 6 7 12 14 12 8 0
20 11 27 25 7 14 17 24 22 24 4 -1 7 2 6 7 -2 5 2 8 9 7 7 -2 12 2 13 7 0 11
78 85 89 85 9 0 -20 -40 -63 -90 -17 -19 -31 -39 -31 -43 0 -5 -5 -5 -12 -1
-8 5 -9 2 -5 -9 3 -9 3 -18 -1 -21 -4 -3 -9 -21 -10 -42 -3 -38 19 -74 45 -74
7 0 12 -5 10 -12 -4 -22 50 -12 82 15 17 14 32 28 32 31 0 3 29 34 65 69 50
48 62 66 51 70 -11 4 -14 1 -11 -7 5 -14 -17 -36 -39 -40 -8 -1 -36 -21 -63
-45 -27 -25 -41 -41 -32 -38 10 3 20 1 24 -5 4 -7 3 -8 -4 -4 -7 4 -12 2 -12
-4 0 -7 -6 -8 -19 -1 -23 13 -33 4 -21 -18 6 -13 4 -17 -11 -18 -40 -3 -26 21
70 119 68 68 98 105 91 112 -7 7 -16 4 -28 -9 -16 -18 -16 -18 3 -5 15 11 15
8 -4 -12 -25 -29 -44 -29 -34 0 6 15 5 15 -10 3 -15 -12 -17 -12 -11 3 3 9 14
15 23 14 10 -2 17 5 19 20 2 12 -2 22 -8 22 -6 0 -8 5 -5 10 3 6 2 10 -3 10
-6 0 -13 -7 -16 -16 -8 -22 -8 -24 5 -21 6 1 14 -5 16 -13 3 -9 1 -11 -4 -5
-13 16 -33 16 -33 0 0 -8 -5 -15 -11 -15 -5 0 -7 -5 -4 -10 3 -6 -1 -13 -9
-16 -9 -3 -16 -11 -16 -17 0 -7 4 -7 12 1 7 7 19 12 28 11 10 0 7 -4 -7 -11
-13 -6 -23 -15 -23 -20 0 -4 -5 -8 -11 -8 -5 0 -7 5 -4 10 3 6 2 10 -3 10 -6
0 -13 -7 -16 -16 -9 -23 -8 -26 7 -18 6 4 3 -2 -7 -14 -11 -12 -21 -20 -24
-17 -2 2 -13 -6 -24 -18 l-19 -22 11 23 c12 24 41 66 98 142 39 53 44 100 9
100 -13 0 -38 -11 -57 -25 -19 -14 -38 -25 -43 -25 -14 0 -107 -97 -157 -164
-23 -31 -44 -56 -47 -56 -9 0 65 97 120 156 58 63 66 81 45 102 -19 19 -24 15
-63 -38z m-149 -25 c0 -19 -3 -22 -13 -13 -17 13 -17 -4 0 -21 10 -11 9 -12
-2 -6 -10 6 -12 2 -6 -16 7 -24 7 -24 -10 -4 -16 20 -16 19 -11 -7 5 -21 -1
-32 -29 -57 -41 -36 -54 -39 -52 -12 1 14 7 18 26 14 21 -3 22 -2 12 11 -7 8
-9 21 -6 28 4 7 -6 -2 -24 -20 -25 -27 -29 -37 -21 -53 6 -11 7 -18 3 -17 -15
4 -53 -13 -53 -24 0 -6 -3 -9 -6 -5 -13 12 59 108 125 167 36 33 66 60 67 60
0 0 0 -11 0 -25z m384 -89 c0 -2 -8 -10 -17 -17 -16 -13 -17 -12 -4 4 13 16
21 21 21 13z m10 -76 c-44 -41 -52 -38 -10 5 18 19 36 33 38 30 3 -2 -10 -18
-28 -35z m-525 -108 c-5 -14 -7 -14 -15 -2 -6 8 -10 20 -10 25 0 6 5 3 10 -5
8 -12 10 -12 11 5 0 11 3 14 6 7 3 -7 2 -20 -2 -30z m222 2 c-3 -3 -12 -4 -19
-1 -8 3 -5 6 6 6 11 1 17 -2 13 -5z"/>
<path d="M1935 2230 c-26 -28 -30 -63 -8 -58 9 2 19 10 21 18 5 13 3 13 -13 0
-17 -14 -17 -14 -2 17 9 17 22 33 29 36 7 3 8 6 2 6 -6 1 -19 -8 -29 -19z"/>
<path d="M1349 2323 c-13 -16 -12 -17 4 -4 9 7 17 15 17 17 0 8 -8 3 -21 -13z"/>
<path d="M4449 2303 c-1 -5 -1 -11 0 -15 0 -5 -3 -8 -8 -8 -5 0 -11 -7 -15
-15 -4 -13 -2 -14 14 -5 11 6 20 15 20 21 0 6 6 7 13 3 8 -5 8 -2 -2 9 -15 19
-20 21 -22 10z"/>
<path d="M1796 2281 c-4 -5 -2 -12 3 -15 5 -4 12 -2 15 3 4 5 2 12 -3 15 -5 4
-12 2 -15 -3z"/>
<path d="M3004 2274 c-17 -14 -17 -15 -1 -10 11 3 16 2 12 -4 -3 -6 -12 -10
-20 -10 -14 0 -29 -28 -26 -49 1 -7 -2 -10 -8 -6 -6 3 -11 -1 -11 -11 0 -12
11 -6 43 22 23 21 40 43 38 49 -2 5 -4 16 -4 23 0 15 1 15 -23 -4z m6 -38 c0
-2 -7 -9 -15 -16 -13 -11 -14 -10 -9 4 5 14 24 23 24 12z"/>
<path d="M4113 2284 c4 -4 2 -13 -4 -21 -9 -10 -8 -13 4 -13 21 0 29 27 9 35
-9 3 -13 3 -9 -1z"/>
<path d="M4285 2268 c-17 -16 -17 -20 -5 -28 10 -7 11 -10 3 -10 -7 0 -13 -4
-13 -10 0 -14 48 10 54 27 3 8 0 20 -7 27 -10 10 -16 9 -32 -6z m30 -18 c-3
-5 -13 -6 -21 -3 -12 4 -13 8 -3 14 15 9 32 2 24 -11z"/>
<path d="M1206 2265 c-18 -14 -15 -20 8 -16 5 1 6 -5 3 -13 -4 -10 -1 -13 8
-9 8 3 12 9 9 14 -3 6 0 16 6 24 17 20 -8 20 -34 0z"/>
<path d="M4495 2236 c-23 -25 -26 -40 -4 -19 12 12 21 24 18 27 -2 2 -9 -1
-14 -8z"/>
<path d="M4070 2215 c-11 -13 -10 -14 4 -9 9 3 16 10 16 15 0 13 -6 11 -20 -6z"/>
<path d="M1435 2209 c-4 -6 -5 -12 -2 -15 2 -3 7 2 10 11 7 17 1 20 -8 4z"/>
<path d="M3950 2189 c0 -5 5 -7 10 -4 6 3 10 8 10 11 0 2 -4 4 -10 4 -5 0 -10
-5 -10 -11z"/>
<path d="M3545 2177 c-15 -12 -16 -15 -4 -22 8 -5 11 -5 7 0 -4 4 0 14 10 21
23 18 11 18 -13 1z"/>
<path d="M2172 2137 c-12 -13 -22 -29 -22 -36 0 -7 -5 -9 -12 -5 -6 4 -8 3 -5
-3 4 -6 0 -16 -8 -23 -8 -7 -15 -18 -15 -24 0 -11 75 72 75 84 0 3 4 11 8 18
13 19 2 14 -21 -11z"/>
<path d="M1685 2125 c0 -12 3 -21 7 -19 3 2 9 -2 12 -8 3 -7 3 -2 0 12 -9 35
-19 44 -19 15z"/>
<path d="M4479 2133 c-13 -16 -12 -17 4 -4 9 7 17 15 17 17 0 8 -8 3 -21 -13z"/>
<path d="M1954 2088 c-12 -14 -13 -18 -3 -10 9 6 18 10 21 7 2 -3 5 2 5 10 0
19 0 19 -23 -7z"/>
<path d="M3166 2098 c3 -5 10 -6 15 -3 13 9 11 12 -6 12 -8 0 -12 -4 -9 -9z"/>
<path d="M3425 2080 c-10 -11 -26 -22 -37 -26 -12 -4 -17 -11 -13 -21 4 -13 3
-13 -9 -4 -11 9 -17 8 -29 -4 -9 -8 -21 -14 -28 -13 -6 2 -13 -2 -15 -8 -3 -6
9 -10 26 -10 21 0 29 4 26 12 -3 8 -1 16 5 19 5 4 9 3 8 -2 -4 -21 3 -22 31
-8 36 18 39 25 8 18 -19 -5 -21 -3 -11 7 7 7 25 14 40 16 38 3 37 2 24 17 -6
8 -8 17 -4 20 3 4 4 7 1 7 -3 0 -13 -9 -23 -20z m19 -8 c3 -5 -1 -9 -9 -9 -8
0 -12 4 -9 9 3 4 7 8 9 8 2 0 6 -4 9 -8z"/>
<path d="M3140 2061 c-6 -15 -10 -32 -9 -37 1 -5 1 -16 0 -24 -1 -12 -3 -13
-10 -1 -7 11 -10 9 -16 -8 -3 -11 -12 -27 -18 -34 -7 -7 -20 -28 -30 -47 l-19
-35 22 25 c15 17 20 19 16 8 -3 -10 -1 -18 4 -18 5 0 12 9 15 20 3 11 11 20
16 20 5 0 9 6 9 13 0 6 7 26 16 42 25 48 35 77 24 70 -6 -3 -10 -2 -10 4 0 5
8 11 18 13 15 3 15 4 0 10 -11 5 -19 -1 -28 -21z m7 -33 c-3 -8 -6 -5 -6 6 -1
11 2 17 5 13 3 -3 4 -12 1 -19z m-42 -84 c-23 -36 -30 -24 -8 14 10 18 20 27
21 21 2 -5 -4 -21 -13 -35z"/>
<path d="M1666 2063 c-6 -14 -5 -15 5 -6 7 7 10 15 7 18 -3 3 -9 -2 -12 -12z"/>
<path d="M1691 2064 c0 -11 3 -14 6 -6 3 7 2 16 -1 19 -3 4 -6 -2 -5 -13z"/>
<path d="M2756 2065 c-3 -9 -10 -14 -15 -11 -12 8 -31 -17 -23 -30 8 -11 18
-11 51 0 18 6 21 10 10 17 -11 7 -11 9 3 9 9 0 20 5 24 12 5 7 2 9 -8 5 -9 -3
-20 -1 -25 4 -7 7 -12 5 -17 -6z m12 -17 c-6 -28 -38 -31 -38 -5 0 8 3 8 9 -1
7 -11 9 -11 14 2 8 19 18 21 15 4z"/>
<path d="M1894 2043 c10 -11 36 -12 36 -2 0 5 -10 9 -22 9 -12 0 -18 -3 -14
-7z"/>
<path d="M2275 2040 c-3 -5 -1 -10 4 -10 6 0 11 5 11 10 0 6 -2 10 -4 10 -3 0
-8 -4 -11 -10z"/>
<path d="M1675 2029 c-4 -6 -5 -12 -2 -15 2 -3 7 2 10 11 7 17 1 20 -8 4z"/>
<path d="M2887 2023 c-10 -10 -8 -25 2 -19 5 3 12 -1 15 -10 4 -9 9 -14 12
-11 3 3 0 15 -8 26 -8 12 -18 18 -21 14z"/>
<path d="M1380 1990 c0 -5 7 -7 15 -4 8 4 15 8 15 10 0 2 -7 4 -15 4 -8 0 -15
-4 -15 -10z"/>
<path d="M3050 1873 c-17 -7 -49 -44 -50 -57 0 -5 10 3 23 17 12 15 26 27 31
27 5 0 3 -7 -4 -15 -9 -10 -9 -15 -1 -15 10 0 13 7 10 26 0 4 5 11 13 15 15
10 1 11 -22 2z"/>
<path d="M3016 1798 c-20 -28 -20 -39 -1 -32 8 4 13 10 10 14 -3 5 2 16 11 24
8 9 11 16 5 16 -5 0 -17 -10 -25 -22z"/>
<path d="M2980 1780 c-6 -11 -8 -20 -6 -20 3 0 10 9 16 20 6 11 8 20 6 20 -3
0 -10 -9 -16 -20z"/>
<path d="M2910 1660 c0 -5 5 -10 10 -10 6 0 10 5 10 10 0 6 -4 10 -10 10 -5 0
-10 -4 -10 -10z"/>
</g>
</svg>
